<?xml version="1.0" encoding="utf-8"?>
<!-- Generator: Adobe Illustrator 17.1.0, SVG Export Plug-In . SVG Version: 6.00 Build 0)  -->
<!DOCTYPE svg PUBLIC "-//W3C//DTD SVG 1.1//EN" "http://www.w3.org/Graphics/SVG/1.1/DTD/svg11.dtd">
<svg version="1.1" id="Layer_1" xmlns="http://www.w3.org/2000/svg" xmlns:xlink="http://www.w3.org/1999/xlink" x="0px" y="0px"
	 viewBox="0 0 512 512" enable-background="new 0 0 512 512" xml:space="preserve">
<g>
	<g>
		<g>
			<g>
				<path fill="#DE7501" d="M317.2,375c0-0.5,0-30.2,0-59.9c0-29.7,0-59.4,0-59.9c-0.6-17.1-6.9-33-17.4-44.6
					c-10.5-11.6-25.1-18.9-42.4-18.9c-17.7,0-33.8,7.2-45.4,18.8c-11.6,11.6-18.8,27.7-18.8,45.4s7.2,33.8,18.8,45.4
					c11.6,11.6,27.7,18.8,45.4,18.8c8.3,0,16.2-1.6,23.4-4.4c7.3-2.9,13.9-7,19.6-12.2c0,11.6,0,23.2,0,34.8c0,11.6,0,23.2,0,34.8
					c-6.7,2.5-13.7,4.4-20.9,5.7c-7.2,1.3-14.6,2-22.2,2c-34.5,0-65.7-14-88.3-36.6c-22.6-22.6-36.6-53.8-36.6-88.3
					s14-65.7,36.6-88.3c22.6-22.6,53.8-36.6,88.3-36.6c34.3,0,65,14.3,87.2,37.2c22.2,22.9,35.8,54.4,36.1,88.6c0,0.2,0,29.6,0,59
					c0,29.4,0,58.8,0,59"/>
			</g>
		</g>
	</g>
	<g>
		<path fill="#DE7501" d="M256.5,505.5c-66.6,0-129.2-25.9-176.4-73c-47.1-47.1-73-109.7-73-176.4S33,126.8,80.1,79.7
			s109.7-73,176.4-73s129.2,25.9,176.4,73c47.1,47.1,73,109.7,73,176.4s-25.9,129.2-73,176.4C385.8,479.5,323.1,505.5,256.5,505.5z
			 M256.5,64.5C150.9,64.5,65,150.4,65,256.1c0,105.6,85.9,191.5,191.5,191.5S448,361.7,448,256.1C448,150.4,362.1,64.5,256.5,64.5z
			"/>
	</g>
</g>
</svg>
